<?xml version="1.0" encoding="UTF-8"?>
<svg version="1.1" xmlns="http://www.w3.org/2000/svg" width="50" height="50">
<path d="M0 0 C1.19625 0.37125 2.3925 0.7425 3.625 1.125 C7.65393248 2.15732434 10.15330304 1.73101363 14 0 C14.33 0.804375 14.66 1.60875 15 2.4375 C16.68921133 5.12410424 16.68921133 5.12410424 18.98046875 5.5546875 C20.97887376 5.7881295 22.99043533 5.90116895 25 6 C25.061875 7.258125 25.12375 8.51625 25.1875 9.8125 C25.38520288 12.00337977 25.38520288 12.00337977 26 14 C28.40743101 16.06454002 28.40743101 16.06454002 31 17 C30.62875 18.19625 30.2575 19.3925 29.875 20.625 C28.84267566 24.65393248 29.26898637 27.15330304 31 31 C30.195625 31.33 29.39125 31.66 28.5625 32 C25.87589576 33.68921133 25.87589576 33.68921133 25.4453125 35.98046875 C25.2118705 37.97887376 25.09883105 39.99043533 25 42 C23.741875 42.061875 22.48375 42.12375 21.1875 42.1875 C18.99662023 42.38520288 18.99662023 42.38520288 17 43 C14.93545998 45.40743101 14.93545998 45.40743101 14 48 C12.80375 47.62875 11.6075 47.2575 10.375 46.875 C6.34606752 45.84267566 3.84669696 46.26898637 0 48 C-0.33 47.195625 -0.66 46.39125 -1 45.5625 C-2.68921133 42.87589576 -2.68921133 42.87589576 -4.98046875 42.4453125 C-6.97887376 42.2118705 -8.99043533 42.09883105 -11 42 C-11.0928125 40.1128125 -11.0928125 40.1128125 -11.1875 38.1875 C-11.38520288 35.99662023 -11.38520288 35.99662023 -12 34 C-14.40743101 31.93545998 -14.40743101 31.93545998 -17 31 C-16.443125 29.205625 -16.443125 29.205625 -15.875 27.375 C-14.84267566 23.34606752 -15.26898637 20.84669696 -17 17 C-16.195625 16.67 -15.39125 16.34 -14.5625 16 C-11.87589576 14.31078867 -11.87589576 14.31078867 -11.4453125 12.01953125 C-11.2118705 10.02112624 -11.09883105 8.00956467 -11 6 C-9.741875 5.938125 -8.48375 5.87625 -7.1875 5.8125 C-4.99662023 5.61479712 -4.99662023 5.61479712 -3 5 C-0.93545998 2.59256899 -0.93545998 2.59256899 0 0 Z M1 4 C0.814375 4.639375 0.62875 5.27875 0.4375 5.9375 C-1 8 -1 8 -4.625 8.75 C-5.73875 8.8325 -6.8525 8.915 -8 9 C-8.0825 10.093125 -8.165 11.18625 -8.25 12.3125 C-9 16 -9 16 -11.0625 17.9375 C-11.701875 18.288125 -12.34125 18.63875 -13 19 C-12.62875 19.886875 -12.2575 20.77375 -11.875 21.6875 C-10.89215772 25.40826005 -11.23937836 26.67438135 -13 30 C-12.360625 30.185625 -11.72125 30.37125 -11.0625 30.5625 C-9 32 -9 32 -8.25 35.625 C-8.1675 36.73875 -8.085 37.8525 -8 39 C-6.906875 39.0825 -5.81375 39.165 -4.6875 39.25 C-1 40 -1 40 0.9375 42.0625 C1.288125 42.701875 1.63875 43.34125 2 44 C2.886875 43.62875 3.77375 43.2575 4.6875 42.875 C8.40826005 41.89215772 9.67438135 42.23937836 13 44 C13.185625 43.360625 13.37125 42.72125 13.5625 42.0625 C15 40 15 40 18.625 39.25 C19.73875 39.1675 20.8525 39.085 22 39 C22.0825 37.906875 22.165 36.81375 22.25 35.6875 C23 32 23 32 25.0625 30.0625 C25.701875 29.711875 26.34125 29.36125 27 29 C26.62875 28.113125 26.2575 27.22625 25.875 26.3125 C24.89215772 22.59173995 25.23937836 21.32561865 27 18 C24.525 17.01 24.525 17.01 22 16 C22 13.69 22 11.38 22 9 C20.906875 8.9175 19.81375 8.835 18.6875 8.75 C15 8 15 8 13.0625 5.9375 C12.711875 5.298125 12.36125 4.65875 12 4 C11.113125 4.37125 10.22625 4.7425 9.3125 5.125 C5.59173995 6.10784228 4.32561865 5.76062164 1 4 Z " fill="#FFFFFF" transform="translate(18,1)"/>
<path d="M0 0 C1.32 0.66 2.64 1.32 4 2 C2.44997253 5.88397689 -0.00476621 8.02979619 -3.125 10.75 C-4.49011719 11.94882812 -4.49011719 11.94882812 -5.8828125 13.171875 C-6.58148438 13.77515625 -7.28015625 14.3784375 -8 15 C-11.32759923 13.44805246 -13.48580485 11.69378051 -16 9 C-15.34 7.68 -14.68 6.36 -14 5 C-12.68 5.99 -11.36 6.98 -10 8 C-5.70761377 6.34908222 -3.1206085 3.26245434 0 0 Z " fill="#FFFFFF" transform="translate(31,18)"/>
</svg>
