<?xml version="1.0" encoding="UTF-8"?>
<svg version="1.1" xmlns="http://www.w3.org/2000/svg" width="256" height="256">
<path d="M0 0 C2.90091476 0.93947709 5.80914719 1.85301827 8.71899414 2.7644043 C27.52373468 8.73836019 42.82678318 15.90385456 52.44750977 34.12182617 C56.05504259 41.95281207 57.59706688 48.3795844 57.62451172 57.01098633 C57.63108292 57.90924637 57.63765411 58.80750641 57.64442444 59.73298645 C57.66414449 62.7089548 57.67582467 65.68487241 57.68579102 68.66088867 C57.68986654 69.6828471 57.69394207 70.70480553 57.6981411 71.75773239 C57.71900833 77.17955065 57.73330047 82.60134364 57.74267578 88.02319336 C57.75366903 93.57942081 57.78798421 99.13523987 57.82784748 104.69132423 C57.85422578 108.9983892 57.86238684 113.30536063 57.86595726 117.61249924 C57.87077817 119.65747167 57.88226072 121.70244123 57.90099525 123.74733353 C58.0384565 139.7624423 56.71168472 155.21771105 50.13500977 170.05932617 C49.68726196 171.10358765 49.68726196 171.10358765 49.23046875 172.16894531 C37.76877759 198.12374215 16.55087362 215.37694888 -8.55249023 227.12182617 C-9.9855249 227.80027588 -9.9855249 227.80027588 -11.44750977 228.49243164 C-14.60270258 229.98355386 -17.76380257 231.4613198 -20.92749023 232.93432617 C-21.92562744 233.40273926 -22.92376465 233.87115234 -23.95214844 234.35375977 C-37.32842138 240.50415383 -46.5017731 242.87192841 -60.55249023 238.12182617 C-63.60603327 236.9292008 -66.58795097 235.60751123 -69.56811523 234.24291992 C-70.38640808 233.87135269 -71.20470093 233.49978546 -72.04779053 233.11695862 C-73.76694922 232.33295602 -75.48448677 231.5453895 -77.20043945 230.75439453 C-79.77585959 229.57155708 -82.36085744 228.41180516 -84.94702148 227.25268555 C-114.40967884 213.84133609 -134.79456102 192.89935715 -146.22827148 162.49682617 C-150.52989364 148.96373952 -151.01308794 136.25168656 -150.98608398 122.17651367 C-150.99065579 120.07292514 -150.9959643 117.9693381 -151.00196838 115.86575317 C-151.01085158 111.48018278 -151.00852961 107.09479499 -150.99853516 102.70922852 C-150.98702553 97.11677145 -151.00731246 91.52494398 -151.03645229 85.9325695 C-151.0548771 81.59656848 -151.05450977 77.26071681 -151.04881477 72.92468643 C-151.04866247 70.8636092 -151.05463085 68.80252126 -151.06710625 66.74148178 C-151.16476643 47.97423683 -148.01521905 33.36150125 -134.79077148 19.21557617 C-126.43938118 11.4034554 -116.22107599 7.65286111 -105.55249023 4.12182617 C-104.3776709 3.73027344 -103.20285156 3.3387207 -101.99243164 2.93530273 C-65.54869803 -9.14326224 -36.98464676 -12.00906566 0 0 Z M-15.18325806 78.42547607 C-16.06387909 79.32783997 -16.94450012 80.23020386 -17.85180664 81.15991211 C-18.58963127 81.90912682 -18.58963127 81.90912682 -19.34236145 82.67347717 C-20.40144536 83.75057141 -21.45709598 84.8310504 -22.50960159 85.91457367 C-24.17515468 87.62790849 -25.8509253 89.33062136 -27.52987671 91.03082275 C-32.29845192 95.86344284 -37.0481568 100.71442105 -41.79077148 105.57250977 C-44.69845964 108.54954488 -47.61810618 111.51441479 -50.54533005 114.47223663 C-51.65775287 115.60146129 -52.76533508 116.73547544 -53.86796951 117.87425995 C-55.4048467 119.4613434 -56.95632271 121.03265423 -58.51196289 122.60131836 C-59.39099274 123.50049988 -60.27002258 124.3996814 -61.1756897 125.32611084 C-63.55249023 127.12182617 -63.55249023 127.12182617 -65.76377869 126.98979187 C-67.90780531 125.94941084 -69.19852791 124.76966196 -70.82983398 123.03198242 C-71.42602539 122.41258789 -72.0222168 121.79319336 -72.63647461 121.1550293 C-73.8683687 119.84524938 -75.10014031 118.53535425 -76.33178711 117.2253418 C-80.73487191 112.58354191 -80.73487191 112.58354191 -86.55249023 110.12182617 C-93.07275856 110.22532249 -96.00540155 111.46647348 -100.55249023 116.12182617 C-103.10416536 119.60138316 -102.98133008 122.90490107 -102.55249023 127.12182617 C-100.05375226 132.09953932 -97.31302834 135.73765898 -93.34155273 139.69604492 C-92.85093353 140.18716263 -92.36031433 140.67828033 -91.85482788 141.1842804 C-90.82470299 142.21208339 -89.79092928 143.23624145 -88.75366211 144.25683594 C-87.17957215 145.80727554 -85.61928991 147.37066962 -84.06030273 148.9362793 C-76.6721568 156.92556514 -76.6721568 156.92556514 -67.20874023 161.65307617 C-66.49717773 161.64276367 -65.78561523 161.63245117 -65.05249023 161.62182617 C-63.98514648 161.63729492 -63.98514648 161.63729492 -62.89624023 161.65307617 C-56.92214266 160.29894739 -52.50834064 155.37140796 -48.31933594 151.16333008 C-47.72831085 150.57741592 -47.13728577 149.99150177 -46.52835083 149.38783264 C-44.58982682 147.46312949 -42.65874095 145.53116804 -40.72827148 143.59838867 C-39.3766175 142.25062488 -38.02474124 140.90308396 -36.6726532 139.55575562 C-33.84589943 136.73644728 -31.02303116 133.91331601 -28.20263672 131.08764648 C-24.59308249 127.47229075 -20.97227398 123.86844509 -17.34824848 120.26760292 C-14.55573019 117.48983266 -11.77018683 114.70514899 -8.98659325 111.91843796 C-7.65451876 110.58687584 -6.3200878 109.25766667 -4.98324013 107.93089676 C-3.11404276 106.0740709 -1.25468138 104.20790647 0.60253906 102.33911133 C1.15272202 101.79657211 1.70290497 101.2540329 2.26976013 100.6950531 C5.93898376 96.97523728 9.17346155 93.15628736 9.66235352 87.74291992 C9.03527985 82.80581879 8.30944095 79.57723829 4.44750977 76.12182617 C-3.45060486 72.0317311 -8.47575284 72.55200309 -15.18325806 78.42547607 Z " fill="#3265CC" transform="translate(174.552490234375,11.878173828125)"/>
</svg>
