<?xml version="1.0" encoding="UTF-8"?>
<svg version="1.1" xmlns="http://www.w3.org/2000/svg" width="225" height="225">
<path d="M0 0 C6.22460207 4.62610732 12.35372368 9.97980427 16.671875 16.45703125 C18.766909 16.84001219 18.766909 16.84001219 21.1796875 16.6796875 C22.08460938 16.66099609 22.98953125 16.64230469 23.921875 16.62304688 C24.870625 16.58888672 25.819375 16.55472656 26.796875 16.51953125 C39.92106044 16.08997922 51.10712443 18.47055304 60.953125 27.671875 C66.78106585 33.72498629 69.73974038 41.19147022 70.671875 49.45703125 C70.61289421 51.079261 70.52563135 52.7005851 70.41796875 54.3203125 C69.46838912 64.36306776 69.46838912 64.36306776 72.6484375 73.55078125 C75.21374726 75.75183253 77.85290988 77.5969258 80.671875 79.45703125 C88.79527621 87.32133711 92.76407401 95.28870696 92.984375 106.58203125 C92.99908511 120.11860088 86.59782239 128.5330408 77.421875 137.89453125 C75.21838087 140.07599044 73.27100106 141.72428055 70.671875 143.45703125 C70.30525523 145.50365997 70.30525523 145.50365997 70.484375 147.859375 C70.50983398 148.74471924 70.53529297 149.63006348 70.56152344 150.54223633 C70.59793945 151.48349365 70.63435547 152.42475098 70.671875 153.39453125 C70.8224273 161.21994948 70.67836413 168.10927549 67.671875 175.45703125 C67.3934375 176.17761719 67.115 176.89820313 66.828125 177.640625 C63.25775377 185.78168698 57.31674867 190.52830585 49.4921875 194.4140625 C42.80212303 196.88808911 36.97372507 197.59985283 29.86987305 197.12329102 C21.3319787 196.46169419 21.3319787 196.46169419 13.58984375 199.4296875 C11.38042674 201.99508764 9.53493873 204.63358289 7.671875 207.45703125 C-0.19243086 215.58043246 -8.15980071 219.54923026 -19.453125 219.76953125 C-32.98969463 219.78424136 -41.40413455 213.38297864 -50.765625 204.20703125 C-52.94708419 202.00353712 -54.5953743 200.05615731 -56.328125 197.45703125 C-58.40665722 197.07405641 -58.40665722 197.07405641 -60.80078125 197.234375 C-61.70119141 197.25306641 -62.60160156 197.27175781 -63.52929688 197.29101562 C-64.47353516 197.32517578 -65.41777344 197.35933594 -66.390625 197.39453125 C-78.97646982 197.81022676 -90.49619986 196.1398919 -100.140625 187.26953125 C-106.56883899 180.26520374 -110.61622757 170.78375009 -110.23974609 161.20947266 C-110.19027832 160.3797998 -110.14081055 159.55012695 -110.08984375 158.6953125 C-109.20697431 149.14139365 -109.20697431 149.14139365 -112.30078125 140.4453125 C-114.86802563 138.22656283 -117.51527591 136.35005815 -120.328125 134.45703125 C-128.4468106 126.58205854 -132.42017175 118.63316111 -132.640625 107.33203125 C-132.65533511 93.79546162 -126.25407239 85.3810217 -117.078125 76.01953125 C-114.87463087 73.83807206 -112.92725106 72.18978195 -110.328125 70.45703125 C-109.96183836 68.52486718 -109.96183836 68.52486718 -110.140625 66.30859375 C-110.16608398 65.47360352 -110.19154297 64.63861328 -110.21777344 63.77832031 C-110.25418945 62.88854492 -110.29060547 61.99876953 -110.328125 61.08203125 C-110.58299917 48.52165329 -108.9867977 36.37796195 -100.203125 26.76953125 C-93.40474671 20.40694644 -84.14819369 16.44460735 -74.78173828 16.46166992 C-73.02938951 16.5634668 -71.2774896 16.67328108 -69.52612305 16.79077148 C-60.9882287 17.45236831 -60.9882287 17.45236831 -53.24609375 14.484375 C-51.03667674 11.91897486 -49.19118873 9.28047961 -47.328125 6.45703125 C-34.58948445 -6.7012932 -15.79555662 -10.46853165 0 0 Z M-35.328125 24.45703125 C-37.70546185 27.50841776 -39.9793164 30.59326067 -42.21484375 33.75 C-44.13833641 36.21391943 -45.65405591 37.87299434 -48.328125 39.45703125 C-51.55181055 39.69148111 -54.37314527 39.67207101 -57.53125 38.9609375 C-65.01887173 37.61191068 -75.07452341 36.90160084 -82.203125 40.01953125 C-85.73263532 42.7725493 -87.12759226 45.25007535 -88.328125 49.45703125 C-88.67727301 52.36919683 -88.6604026 55.215963 -88.578125 58.14453125 C-88.57296875 58.89025391 -88.5678125 59.63597656 -88.5625 60.40429688 C-88.51223744 63.92581732 -88.19451328 67.06312497 -87.328125 70.45703125 C-86.87060154 75.18477362 -86.67215384 77.37128589 -89.140625 81.45703125 C-91.69315147 84.15500082 -94.66479605 86.1506416 -97.703125 88.26953125 C-104.07073915 92.77849046 -109.09872863 97.49564293 -111.453125 105.08203125 C-111.1829619 112.37643489 -107.50387727 117.59222533 -102.328125 122.45703125 C-99.27673849 124.8343681 -96.19189558 127.10822265 -93.03515625 129.34375 C-90.01300329 131.70303536 -87.63941797 133.55962648 -87 137.45703125 C-87.02578125 138.11703125 -87.0515625 138.77703125 -87.078125 139.45703125 C-87.10132813 140.44703125 -87.10132813 140.44703125 -87.125 141.45703125 C-87.328125 143.45703125 -87.328125 143.45703125 -87.82592773 145.34277344 C-89.49400541 152.36540477 -89.70334174 162.62801101 -86.765625 169.33203125 C-84.01296038 172.86108846 -81.53359353 174.25430296 -77.328125 175.45703125 C-74.43667835 175.80637906 -71.61112925 175.78923632 -68.703125 175.70703125 C-67.96578125 175.701875 -67.2284375 175.69671875 -66.46875 175.69140625 C-62.63569738 175.63645209 -59.05929345 175.32165139 -55.328125 174.45703125 C-51.11269799 173.99716649 -49.03272644 174.02227717 -45.390625 176.26953125 C-42.64968636 178.81468856 -40.64662374 181.77029987 -38.515625 184.83203125 C-34.00666579 191.1996454 -29.28951332 196.22763488 -21.703125 198.58203125 C-14.40872136 198.31186815 -9.19293092 194.63278352 -4.328125 189.45703125 C-1.95078815 186.40564474 0.3230664 183.32080183 2.55859375 180.1640625 C4.48208641 177.70014307 5.99780591 176.04106816 8.671875 174.45703125 C11.89556055 174.22258139 14.71689527 174.24199149 17.875 174.953125 C25.36262173 176.30215182 35.41827341 177.01246166 42.546875 173.89453125 C46.07593221 171.14186663 47.46914671 168.66249978 48.671875 164.45703125 C49.02122281 161.5655846 49.00408007 158.7400355 48.921875 155.83203125 C48.91414063 154.72601563 48.91414063 154.72601563 48.90625 153.59765625 C48.85129584 149.76460363 48.53649514 146.1881997 47.671875 142.45703125 C47.21201024 138.24160424 47.23712092 136.16163269 49.484375 132.51953125 C52.02953231 129.77859261 54.98514362 127.77552999 58.046875 125.64453125 C64.27180668 121.22819458 70.3575608 116.1407808 71.796875 108.26953125 C71.56412833 101.17075775 67.64776919 96.22077491 62.671875 91.45703125 C59.62204296 89.07687132 56.5360351 86.8061157 53.37890625 84.5703125 C50.91498682 82.64681984 49.25591191 81.13110034 47.671875 78.45703125 C47.43742514 75.2333457 47.45683524 72.41201098 48.16796875 69.25390625 C49.51699557 61.76628452 50.22730541 51.71063284 47.109375 44.58203125 C44.35635695 41.05252093 41.8788309 39.65756399 37.671875 38.45703125 C34.75970942 38.10788324 31.91294325 38.12475365 28.984375 38.20703125 C28.23865234 38.2121875 27.49292969 38.21734375 26.72460938 38.22265625 C23.20308893 38.27291881 20.06578128 38.59064297 16.671875 39.45703125 C11.94413263 39.91455471 9.75762036 40.11300241 5.671875 37.64453125 C2.97390543 35.09200478 0.97826465 32.1203602 -1.140625 29.08203125 C-5.64958421 22.7144171 -10.36673668 17.68642762 -17.953125 15.33203125 C-25.24752864 15.60219435 -30.46331908 19.28127898 -35.328125 24.45703125 Z " fill="#000000" transform="translate(132.328125,5.54296875)"/>
<path d="M0 0 C4.32504836 1.65863505 7.09418825 4.871041 10.25 8.125 C10.80429688 8.68832031 11.35859375 9.25164062 11.9296875 9.83203125 C13.29104485 11.21686028 14.64614859 12.60783204 16 14 C14.3993244 17.97526224 11.62856444 20.64020304 8.63232422 23.59472656 C8.08583221 24.14151062 7.53934021 24.68829468 6.97628784 25.25164795 C5.17378907 27.05275649 3.36431604 28.84668247 1.5546875 30.640625 C0.30157633 31.89000495 -0.95109319 33.13982801 -2.20333862 34.39007568 C-5.49675955 37.67586872 -8.79614291 40.9556107 -12.09680176 44.23413086 C-15.46528994 47.58214253 -18.8281076 50.93583907 -22.19140625 54.2890625 C-28.78873176 60.86495296 -35.39236983 67.43446516 -42 74 C-47.14829744 69.69372744 -51.95752072 65.17688069 -56.68359375 60.4140625 C-57.38396255 59.71227875 -58.08433136 59.010495 -58.80592346 58.28744507 C-61.01883027 56.06898864 -63.22821416 53.84706185 -65.4375 51.625 C-66.94703314 50.11044534 -68.45679657 48.59612015 -69.96679688 47.08203125 C-73.64719702 43.39066901 -77.32471957 39.69645931 -81 36 C-80.04957913 34.88325489 -79.09802392 33.76747511 -78.14599609 32.65209961 C-77.61622162 32.0306456 -77.08644714 31.40919159 -76.5406189 30.76890564 C-74.65646139 28.60555632 -72.67078197 26.57300987 -70.625 24.5625 C-69.59246094 23.54349609 -69.59246094 23.54349609 -68.5390625 22.50390625 C-68.03117187 22.00761719 -67.52328125 21.51132813 -67 21 C-63.43674826 22.50419262 -61.25098366 24.5669507 -58.59375 27.3515625 C-57.76746094 28.20234375 -56.94117187 29.053125 -56.08984375 29.9296875 C-54.35937405 31.73062882 -52.63282111 33.53534164 -50.91015625 35.34375 C-50.08386719 36.19195312 -49.25757812 37.04015625 -48.40625 37.9140625 C-47.65666016 38.6973291 -46.90707031 39.4805957 -46.13476562 40.28759766 C-43.9360839 42.41714477 -43.9360839 42.41714477 -40 42 C-39.67 41.01 -39.34 40.02 -39 39 C-37.01739574 37.31267723 -35.0167658 35.64633943 -33 34 C-32.34 33.01 -31.68 32.02 -31 31 C-30.34 31 -29.68 31 -29 31 C-28.773125 30.44828125 -28.54625 29.8965625 -28.3125 29.328125 C-26.61274074 26.31307583 -24.45195184 24.18769631 -22 21.75 C-21.113125 20.85796875 -20.22625 19.9659375 -19.3125 19.046875 C-17 17 -17 17 -15 17 C-14.34 15.68 -13.68 14.36 -13 13 C-12.34 13 -11.68 13 -11 13 C-10.34 11.68 -9.68 10.36 -9 9 C-8.34 9 -7.68 9 -7 9 C-6.773125 8.443125 -6.54625 7.88625 -6.3125 7.3125 C-4.64103234 4.36753316 -2.44723648 2.31843456 0 0 Z " fill="#000000" transform="translate(145,74)"/>
</svg>
